<svg width="45" height="60" viewBox="0 0 45 60" fill="none" xmlns="http://www.w3.org/2000/svg">
<path d="M0.00211591 0V18.6303H3.21212V3.21001H41.79V37.2769C41.79 39.8101 41.291 42.3185 40.3216 44.6588C39.3522 46.9991 37.9314 49.1256 36.1401 50.9168C34.3489 52.708 32.2225 54.1288 29.8821 55.0984C27.5418 56.0675 25.0334 56.5666 22.5003 56.5666C19.9671 56.5666 17.4587 56.0675 15.1184 55.0984C12.7781 54.1288 10.6516 52.708 8.86038 50.9168C7.06917 49.1256 5.6483 46.9991 4.67889 44.6588C3.70949 42.3185 3.21054 39.8101 3.21054 37.2769V34.6078H15.3075V37.2769C15.3075 39.1837 16.065 41.0124 17.4133 42.3607C18.7616 43.709 20.5903 44.4665 22.4971 44.4665C24.4039 44.4665 26.2326 43.709 27.5809 42.3607C28.9292 41.0124 29.6867 39.1837 29.6867 37.2769V15.3096H15.3091V18.6303H26.3708V37.2769C26.3708 38.3036 25.9629 39.2882 25.237 40.0142C24.511 40.7401 23.5264 41.148 22.4997 41.148C21.4731 41.148 20.4885 40.7401 19.7625 40.0142C19.0365 39.2882 18.6287 38.3036 18.6287 37.2769V31.2845H3.21001H0V37.2753C0 43.2427 2.37053 48.9657 6.59008 53.1851C10.8097 57.405 16.5326 59.7756 22.5 59.7756C28.4673 59.7756 34.1903 57.405 38.4099 53.1851C42.6295 48.9657 45 43.2427 45 37.2753V0H0.00211591Z" fill="#A3EDF2"/>
<path d="M22.5044 47.2309C19.8643 47.2288 17.3329 46.1793 15.4656 44.3129C13.5984 42.4465 12.5479 39.9155 12.5447 37.2754H9.22986C9.22986 40.7954 10.6282 44.1713 13.1173 46.6604C15.6063 49.1494 18.9823 50.5478 22.5023 50.5478C26.0224 50.5478 29.3983 49.1494 31.8874 46.6604C34.3765 44.1713 35.7748 40.7954 35.7748 37.2754V9.22412H9.22986V18.6271H12.5447V12.5405H32.4552V37.2732C32.4535 39.9124 31.4048 42.4432 29.5393 44.3101C27.6737 46.1769 25.1436 47.2274 22.5044 47.2309Z" fill="#9E9CF8"/>
</svg>
